<?xml version="1.0" encoding="UTF-8" standalone="no"?>
<!-- Created with Inkscape (http://www.inkscape.org/) -->

<svg
   width="50.379078mm"
   height="49.923424mm"
   viewBox="0 0 50.379078 49.923424"
   version="1.1"
   id="svg1"
   xml:space="preserve"
   xmlns="http://www.w3.org/2000/svg"
   xmlns:svg="http://www.w3.org/2000/svg"><defs
     id="defs1" /><g
     id="layer1"
     transform="translate(-80.62887,-91.665784)"><path
       style="fill:#15cc9c;fill-opacity:1"
       d="m 101.16367,141.17054 c -2.283879,-0.43321 -4.595156,-1.24924 -7.05432,-2.49062 -1.147891,-0.57945 -1.847363,-0.78419 -2.245494,-0.65727 -2.910456,0.92786 -5.311292,-1.76203 -4.013568,-4.49678 1.34949,-2.84384 5.711749,-2.0392 6.137098,1.13201 0.447383,3.33549 12.002694,5.45232 18.332584,3.35837 9.87256,-3.2659 15.69869,-11.17865 15.72997,-21.36366 0.007,-2.2797 -0.0613,-4.21902 -0.15173,-4.3096 -0.1629,-0.16312 -9.74614,2.24897 -11.14647,2.80556 l -0.72761,0.2892 v 7.77311 c 0,8.75032 -0.018,8.83144 -1.96085,8.83144 -1.32276,0 -1.43091,-0.16974 -8.88706,-13.94828 l -6.746874,-12.46783 -0.132291,6.39503 c -0.176638,8.53874 0.53498,7.70418 -8.618056,10.10687 -8.291793,2.17661 -7.691384,2.20571 -8.346774,-0.40454 -4.903164,-19.52803 16.783836,-36.479049 35.392915,-27.663843 2.13587,1.01177 2.6013,1.14401 3.21083,0.91226 2.4726,-0.94008 4.98068,1.8328 3.93072,4.34573 -1.28258,3.069623 -6.25506,2.256353 -6.25506,-1.02305 0,-0.92747 -0.0452,-0.96822 -2.18281,-1.96673 -13.19165,-6.16211 -28.684077,1.6134 -31.562159,15.840783 -0.429651,2.12392 -0.482906,8.2235 -0.07536,8.63105 0.152887,0.15288 9.803121,-2.29163 11.132313,-2.81994 l 0.727604,-0.28921 v -7.7731 c 0,-8.75032 0.01801,-8.83145 1.960856,-8.83145 1.320334,0 1.4232,0.16129 8.887056,13.93445 l 6.74688,12.45009 0.13229,-6.37925 c 0.17669,-8.52037 -0.53351,-7.68877 8.61806,-10.09108 8.29179,-2.17661 7.69138,-2.20571 8.34677,0.40454 4.16767,16.59875 -11.94471,33.03486 -29.17946,29.76574 z m -9.70047,-5.33279 c 0.865673,-0.78342 0.44382,-1.94336 -0.70677,-1.94336 -1.114202,0 -1.574003,1.16632 -0.774852,1.96547 0.529761,0.52976 0.877549,0.52457 1.481622,-0.0221 z m 30.38712,-37.142953 c 0.6073,-1.13475 -0.44811,-2.19015 -1.58286,-1.58285 -0.59596,0.31895 -0.71753,1.30865 -0.22166,1.80452 0.49587,0.49587 1.48557,0.3743 1.80452,-0.22167 z"
       id="path1" /></g></svg>
