<?xml version="1.0" encoding="UTF-8" standalone="no"?>
<!-- Created with Inkscape (http://www.inkscape.org/) -->

<svg
   width="50.378838mm"
   height="49.923054mm"
   viewBox="0 0 50.378838 49.923054"
   version="1.1"
   id="svg1"
   xml:space="preserve"
   xmlns="http://www.w3.org/2000/svg"
   xmlns:svg="http://www.w3.org/2000/svg"><defs
     id="defs1"><clipPath
       clipPathUnits="userSpaceOnUse"
       id="clipPath150"><path
         id="path151"
         style="fill:#ff0000;fill-opacity:1;fill-rule:nonzero;stroke:none;stroke-width:0.264583"
         d="m 89.869343,103.33847 v 23.88505 H 123.53936 V 103.33847 H 98.47421 c -0.212465,0.62252 -0.443008,1.23928 -0.678094,1.85434 -0.0421,0.13019 -0.08419,0.26053 -0.126846,0.39057 -0.289063,0.82832 -0.603956,1.64796 -0.952923,2.4551 -0.461641,1.09193 -0.937976,2.17787 -1.388428,3.27414 -0.268289,0.63836 -0.548237,1.27572 -0.761602,1.93315 -0.235238,0.72484 -0.597968,1.22451 -0.999963,1.52339 -0.032,0.0721 -0.06643,0.13884 -0.103062,0.20008 -0.03177,0.0724 -0.06379,0.14445 -0.09566,0.21676 -0.603765,1.36973 -2.003663,0.89569 -1.619918,-0.38248 -0.372328,-0.3165 -0.604912,-0.86653 -0.546491,-1.60928 -0.471827,-0.0566 -0.815157,-0.60145 -0.476727,-1.42688 0.05093,-0.12423 0.101506,-0.24853 0.152214,-0.37289 -0.435154,-0.0975 -0.731608,-0.62655 -0.414889,-1.41222 0.08537,-0.21176 0.170713,-0.42379 0.255804,-0.63563 -0.02135,-0.44522 0.03272,-0.94825 0.182338,-1.50469 0.07029,-0.26138 0.03526,-0.13381 0.104648,-0.38299 0.14202,-0.50962 0.298418,-1.01644 0.50474,-1.50621 0.16513,-0.37905 0.322161,-0.76094 0.488882,-1.13938 0.146378,-0.33393 0.295369,-0.66696 0.442902,-1.00043 0.07858,-0.15761 0.154344,-0.31674 0.233079,-0.47445 z" /></clipPath><clipPath
       clipPathUnits="userSpaceOnUse"
       id="clipPath165"><path
         id="path166"
         style="fill:#ff0000;fill-opacity:1;fill-rule:nonzero;stroke:none;stroke-width:0.264583"
         d="M 80.889118,92.576777 V 142.49983 H 131.26796 V 92.576777 Z m 18.396294,6.993374 v 5.29e-4 h 0.0011 c 0.04196,-0.0019 0.0836,-0.0016 0.124539,0 0.938819,0.03842 1.591539,0.98399 1.083129,2.3368 0.65717,0.16218 1.15178,0.85235 1.04904,1.9079 0.0842,0.0498 0.16929,0.10417 0.25528,0.1633 0.19218,0.13214 0.38321,0.26593 0.56534,0.41186 0.25375,0.20321 0.32003,0.24406 0.55759,0.49196 0.32864,0.34294 0.5845,0.75475 0.77773,1.18649 0.23632,0.5858 0.43092,1.18656 0.60668,1.79317 0.34962,1.07381 0.7472,2.1317 1.18184,3.17397 0.76311,1.77179 1.62151,3.4993 2.51664,5.20795 1.16439,2.19283 2.40128,4.35264 3.39773,6.62957 0.22776,0.56658 0.46999,1.14387 0.6537,1.73529 0.0307,0.0301 0.0615,0.06 0.0925,0.0899 -0.002,-0.2429 10e-4,-0.48573 0.007,-0.72864 0.0129,-0.4207 0.0276,-0.55937 0.0584,-0.97255 0.0662,-0.81739 0.24328,-1.61949 0.32608,-2.43448 0.0491,-0.55191 0.0633,-1.10608 0.0553,-1.65984 -0.0113,-0.50334 -0.0273,-1.0065 -0.0243,-1.50999 0.005,-0.52089 0.0297,-1.04099 0.0558,-1.56114 0.0216,-0.4045 0.0339,-0.80945 0.0429,-1.2144 0.0204,-0.92765 0.30504,-1.58223 0.69815,-1.9668 -0.001,-0.054 -0.002,-0.10778 -0.004,-0.16175 -0.007,-0.26644 -0.009,-0.38988 -0.0202,-0.65009 -0.004,-0.0797 -0.008,-0.15905 -0.0119,-0.23875 -0.003,-0.0492 -0.007,-0.0986 -0.0103,-0.14779 -7.9e-4,-0.0121 -0.007,-0.0409 -0.006,-0.0486 v -5.3e-4 -5.2e-4 l 5.3e-4,-5.3e-4 h 5.3e-4 5.3e-4 l 5.3e-4,5.3e-4 0.002,0.002 c 0.0155,0.0199 0.0147,0.0481 0.0217,0.0723 h -0.002 c 0.74511,2.50812 1.87553,-1.72248 2.6541,-1.71255 0.17967,0.002 0.34073,0.23013 0.47387,0.81907 0.13447,0.59485 0.12974,1.21116 0.14624,1.81797 0.0205,0.88084 0.0244,1.76222 0.0284,2.64325 0.004,0.81087 0.005,1.62155 0.006,2.43241 5.3e-4,0.0323 5.3e-4,0.0644 0.001,0.0966 0.74556,0.20122 1.43696,0.92259 1.48932,2.21537 0.008,0.187 0.01,0.37352 0.007,0.56069 -0.002,0.30805 -0.002,0.61653 -0.0103,0.92449 -0.0109,0.32119 -0.0242,0.64316 -0.0739,0.96118 -0.065,0.40672 -0.1537,0.8088 -0.27027,1.20406 -0.13357,0.48188 -0.26903,0.96485 -0.33383,1.46193 -0.10112,0.8038 -0.17648,1.61058 -0.24288,2.41794 -0.0319,0.44519 -0.0549,0.89069 -0.0873,1.33583 -0.0162,0.22318 -0.0332,0.47061 -0.0682,0.69298 -0.0153,0.0972 -0.0382,0.19289 -0.0574,0.28939 v 5.3e-4 c -0.0174,0.0876 -0.0349,0.1678 -0.0522,0.24081 0.006,0.0962 0.008,0.19607 0.004,0.29972 0.022,0.022 0.043,0.0422 0.062,0.06 0.0267,0.0247 0.0595,0.0423 0.0832,0.0698 l 5.3e-4,5.3e-4 v 5.3e-4 l 5.3e-4,5.3e-4 v 5.3e-4 0.001 5.3e-4 h -5.3e-4 -5.3e-4 c -0.006,-0.002 -0.0268,-0.0129 -0.0357,-0.0165 v -5.3e-4 c -0.0389,-0.0158 -0.0766,-0.0304 -0.11317,-0.0439 -0.011,0.20389 -0.0403,0.42174 -0.0904,0.65267 -0.11123,0.51233 -0.20109,1.02897 -0.28009,1.5472 -0.0809,0.56408 -0.14713,1.12976 -0.20102,1.69705 -0.3048,3.20581 -3.4872,2.74875 -3.22048,-0.46044 0.009,-0.11112 0.0194,-0.22239 0.0305,-0.33331 -0.46731,-0.15437 -0.96609,-0.51519 -1.42473,-1.13585 -0.21522,-0.29125 -0.43334,-0.58043 -0.63767,-0.87953 -0.30422,-0.42704 -0.59365,-0.86363 -0.8785,-1.3038 -0.36361,-0.53455 -0.75799,-1.04753 -1.14825,-1.56269 -0.58816,-0.77146 -1.1496,-1.56317 -1.68156,-2.37453 -0.70204,-1.06435 -1.4128,-2.12313 -2.09754,-3.19877 -0.83007,-1.26823 -1.67834,-2.52482 -2.4846,-3.80856 -0.48223,-0.74917 -0.95571,-1.50624 -1.2883,-2.33681 -0.451,-1.06608 -0.8896,-2.13758 -1.31981,-3.2122 -0.0502,-0.1314 -0.10025,-0.26318 -0.14986,-0.39481 -0.006,0.0579 -0.0128,0.11693 -0.0212,0.17673 -0.09065,0.64582 -0.167674,1.29369 -0.233574,1.94252 -0.160102,1.58409 -0.310303,3.16989 -0.56224,4.74286 -0.125335,0.81094 -0.287065,1.62527 -0.307475,2.4474 -0.06822,2.74762 -2.408742,3.15105 -3.076813,1.20819 -0.136384,0.26182 -0.264631,0.52756 -0.372589,0.80254 -1.176835,2.99752 -4.170187,2.00343 -3.086115,-1.02888 0.215934,-0.60401 0.515273,-1.17311 0.820105,-1.73581 0.46804,-0.84192 0.913751,-1.6944 1.308962,-2.57297 0.06221,-0.14166 0.124018,-0.28334 0.185518,-0.4253 -0.75647,-0.2864 -1.287833,-1.35112 -0.846973,-2.90473 0.257156,-0.90626 0.575058,-1.79366 0.891415,-2.68046 0.02172,-0.0608 0.04326,-0.12163 0.06511,-0.18241 -0.412078,-0.0603 -0.768868,-0.31898 -0.974619,-0.73536 -0.223568,0.54695 -0.445384,1.09428 -0.661456,1.64434 -0.262321,0.65289 -0.53604,1.30475 -0.744659,1.97714 -0.22969,0.7403 -0.583771,1.25118 -0.976167,1.55702 -0.03143,0.0741 -0.06528,0.1427 -0.101285,0.20567 -0.03104,0.0739 -0.0624,0.1478 -0.09354,0.22169 -0.590198,1.40057 -1.958713,0.9164 -1.584399,-0.39016 -0.488225,-0.43356 -0.730932,-1.29691 -0.37207,-2.48822 0.10342,-0.34332 0.222165,-0.68142 0.3483,-1.01699 -0.796935,-0.55466 -1.268756,-1.81218 -0.805119,-3.6158 0.06872,-0.26733 0.03448,-0.13686 0.102317,-0.39171 0.138861,-0.52121 0.29178,-1.03956 0.493511,-1.54047 0.16146,-0.38768 0.314995,-0.77826 0.478007,-1.16531 0.143121,-0.34153 0.288804,-0.68213 0.433049,-1.02319 0.204946,-0.42999 0.39115,-0.87102 0.661458,-1.26607 0.211548,-0.30776 0.420998,-0.61678 0.617017,-0.93483 0.207965,-0.3157 0.4055,-0.63752 0.606681,-0.95756 0.833142,-1.32537 1.825091,-1.89814 2.672189,-1.92082 0.0804,-0.002 0.15966,0.001 0.237194,0.008 -0.08574,-0.0135 -0.18019,-0.024 -0.283187,-0.03 -0.0021,-1.2e-4 -0.0069,2.2e-4 -0.0083,0 h -5.29e-4 v -10e-4 h 5.29e-4 c 0.311889,-0.10024 0.630571,-0.15922 0.954464,-0.20412 0.463364,-0.062 0.930425,-0.0633 1.396814,-0.0553 0.0633,0.003 0.126799,0.006 0.19017,0.009 0.576595,-0.848129 1.26383,-1.226954 1.856734,-1.252637 z m -0.103868,11.068059 c -0.02117,0.0549 -0.04241,0.10946 -0.06356,0.16433 0.04942,0.0221 0.09795,0.0473 0.145211,0.076 -0.02737,-0.0802 -0.05459,-0.15999 -0.08165,-0.24029 z" /></clipPath></defs><g
     id="layer2"
     transform="translate(-80.889113,-92.576784)"><g
       id="g80"><g
         id="layer1"
         style="display:inline"><path
           style="fill:#15cc9c;fill-opacity:1"
           d="m 101.42391,142.08136 c -2.283883,-0.43321 -4.59516,-1.24924 -7.054324,-2.49062 -1.147891,-0.57945 -1.847363,-0.78419 -2.245494,-0.65727 -2.910456,0.92786 -5.311292,-1.76203 -4.013568,-4.49678 1.34949,-2.84384 5.711749,-2.0392 6.137098,1.13201 0.447383,3.33549 12.002698,5.45232 18.332588,3.35837 9.87256,-3.2659 15.69869,-11.17865 15.72997,-21.36366 0.007,-2.2797 -0.0613,-4.21902 -0.15173,-4.3096 -0.1629,-0.16312 -9.74614,2.24897 -11.14647,2.80556 l -0.72761,0.2892 v 7.77311 c 0,8.75032 -0.018,8.83144 -1.96085,8.83144 -1.32276,0 -1.43091,-0.16974 -8.88706,-13.94828 l -6.746878,-12.46783 -0.132291,6.39503 c -0.176638,8.53874 0.53498,7.70418 -8.618056,10.10687 -8.291793,2.17661 -7.691384,2.20571 -8.346774,-0.40454 -4.903164,-19.52803 16.783836,-36.479041 35.392919,-27.663834 2.13587,1.011769 2.6013,1.144007 3.21083,0.912263 2.4726,-0.940081 4.98068,1.8328 3.93072,4.345721 -1.28258,3.06962 -6.25506,2.25635 -6.25506,-1.023049 0,-0.92747 -0.0452,-0.968213 -2.18281,-1.96673 -13.19165,-6.162111 -28.684081,1.613405 -31.562163,15.840779 -0.429651,2.12392 -0.482906,8.2235 -0.07536,8.63105 0.152887,0.15288 9.803121,-2.29163 11.132313,-2.81994 l 0.727604,-0.28921 v -7.7731 c 0,-8.75032 0.01801,-8.83145 1.960856,-8.83145 1.320334,0 1.4232,0.16129 8.88706,13.93445 l 6.74688,12.45009 0.13229,-6.37925 c 0.17669,-8.52037 -0.53351,-7.68877 8.61806,-10.09108 8.29179,-2.17661 7.69138,-2.20571 8.34677,0.40454 4.16767,16.59875 -11.94471,33.03486 -29.17946,29.76574 z m -9.700474,-5.33279 c 0.865673,-0.78342 0.44382,-1.94336 -0.70677,-1.94336 -1.114202,0 -1.574003,1.16632 -0.774852,1.96547 0.529761,0.52976 0.877549,0.52457 1.481622,-0.0221 z M 122.11056,99.605629 c 0.6073,-1.134752 -0.44811,-2.190155 -1.58286,-1.582854 -0.59596,0.318947 -0.71753,1.308647 -0.22166,1.804515 0.49587,0.49587 1.48557,0.3743 1.80452,-0.221661 z"
           id="path42"
           clip-path="url(#clipPath165)" /></g><path
         d="m 111.49253,127.22353 h -3.38464 l -2.34198,-6.657 H 95.435528 l -2.341981,6.657 h -3.224234 l 8.694203,-23.88499 h 4.234814 z m -6.70512,-9.38396 -4.18669,-11.72595 -4.202734,11.72595 z m 18.75189,9.38396 h -9.43209 v -2.43822 h 3.12799 v -19.00855 h -3.12799 v -2.43822 h 9.43209 v 2.43822 h -3.12799 v 19.00855 h 3.12799 z"
         id="text2"
         clip-path="url(#clipPath150)"
         style="font-size:32.8519px;fill:#15cc9c;stroke-width:2.73766"
         transform="scale(0.97775376,1.0227524)"
         aria-label="AI" /></g></g></svg>
